<?xml version="1.0" encoding="utf-8"?>
<svg version="1.1" id="svg2" width="2560" height="1440" viewBox="155.06 -3.42 622.898 620.237" xmlns="http://www.w3.org/2000/svg">
  <defs id="defs6">
    <clipPath clipPathUnits="userSpaceOnUse" id="clipPath18">
      <path d="M 0,1080 H 1920 V 0 H 0 Z" id="path16"/>
    </clipPath>
  </defs>
  <g id="g10" transform="matrix(1.333333, 0, 0, -1.333333, -841.42511, 1148.123535)">
    <g id="g12">
      <g id="g14" clip-path="url(#clipPath18)">
        <g id="g20" transform="translate(1209.5732,631.0991)">
          <path d="m 0,0 c 0,-126.382 -102.453,-228.835 -228.835,-228.835 -126.383,0 -228.836,102.453 -228.836,228.835 0,126.382 102.453,228.835 228.836,228.835 C -102.453,228.835 0,126.382 0,0" style="fill: rgb(253, 233, 76); fill-opacity: 1; fill-rule: nonzero; stroke: rgb(0, 0, 0); stroke-width: 2.25px;" id="path22"/>
        </g>
        <g id="g24" transform="translate(944.5454,500.7793)">
          <path d="M 10.11 20.545 C -0.169 29.931 -7.274 39.619 -12.112 47.943 C -21.076 45.542 -30.51 44.263 -40.222 44.263 C -73.616 44.263 -103.559 59.319 -123.597 82.989 C -113.632 59.898 -93.485 30.757 -65.098 9.724 C -35.637 -11.848 0.688 -24.575 39.981 -24.575 C 58.693 -24.575 76.716 -21.691 93.655 -16.335 C 52.298 -9.978 26.095 5.96 10.11 20.545" style="fill:#000100;fill-opacity:1;fill-rule:nonzero;stroke:none" id="path26"/>
        </g>
        <g id="g28" transform="translate(1112.2373,593.6733)">
          <path d="M -98.66 60.623 C -98.66 17.36 -123.935 -20.111 -160.489 -37.797 C -156.46 -44.131 -150.813 -51.321 -142.996 -58.294 C -118.361 -80.239 -81.565 -91.7 -35.686 -91.88 C 15.901 -60.683 50.381 -4.054 50.381 60.623 L -98.66 60.623 Z" style="fill:#000100;fill-opacity:1;fill-rule:nonzero;stroke:none" id="path30"/>
        </g>
        <g id="g32" transform="translate(1038.2588,700.3511)">
          <path d="m 0,0 -12.05,-12.037 v -26.436 h -12.631 v 31.665 l 15.738,15.75 c 2.475,2.463 6.467,2.463 8.943,0 C 2.463,6.467 2.463,2.476 0,0" style="fill:#000100;fill-opacity:1;fill-rule:nonzero;stroke:none" id="path34"/>
        </g>
        <g id="g36" transform="translate(819.0645,693.543)">
          <path d="M 0,0 V -31.665 H -12.63 V -5.229 L -24.68,6.808 c -2.463,2.476 -2.463,6.467 0,8.942 2.475,2.463 6.467,2.463 8.942,0 z" style="fill:#000100;fill-opacity:1;fill-rule:nonzero;stroke:none" id="path38"/>
        </g>
        <g id="g40" transform="translate(1081.2031,700.3511)">
          <path d="m 0,0 -12.05,-12.037 v -26.436 h -12.631 v 31.665 l 15.739,15.75 c 2.475,2.463 6.466,2.463 8.942,0 C 2.463,6.467 2.463,2.476 0,0" style="fill:#000100;fill-opacity:1;fill-rule:nonzero;stroke:none" id="path42"/>
        </g>
        <g id="g44" transform="translate(1124.1475,700.3511)">
          <path d="m 0,0 -12.05,-12.037 v -26.436 h -12.631 v 31.665 l 15.739,15.75 c 2.475,2.463 6.466,2.463 8.942,0 C 2.463,6.467 2.463,2.476 0,0" style="fill:#000100;fill-opacity:1;fill-rule:nonzero;stroke:none" id="path46"/>
        </g>
        <g id="g48" transform="translate(1167.0918,700.3511)">
          <path d="m 0,0 -12.05,-12.037 v -26.436 h -12.63 v 31.665 l 15.738,15.75 c 2.475,2.463 6.466,2.463 8.942,0 C 2.463,6.467 2.463,2.476 0,0" style="fill:#000100;fill-opacity:1;fill-rule:nonzero;stroke:none" id="path50"/>
        </g>
        <g id="g52" transform="translate(928.3555,594.3369)">
          <path d="M -121.92 59.959 C -121.92 5.899 -78.091 -37.93 -24.032 -37.93 C 30.028 -37.93 73.856 5.899 73.856 59.959 L -121.92 59.959 Z" style="fill:#000100;fill-opacity:1;fill-rule:nonzero;stroke:none" id="path54"/>
        </g>
        <g id="g56" transform="translate(660.8677,253.1055)">
          <path d="m 0,0 c -2.96,3.091 -4.399,5.904 -4.399,8.599 v 97.6 H -26.871 V 10.774 c 0,-21.133 14.266,-34.79 36.344,-34.79 h 39.61 v 21.85 H 9.473 C 3.188,-2.166 0.844,-0.822 0,0" style="fill:#000000;fill-opacity:1;fill-rule:nonzero;stroke:none" id="path58"/>
        </g>
        <g id="g60" transform="translate(791.377,279.6553)">
          <path d="m 0,0 c 0.136,-8.542 -2.694,-15.719 -8.651,-21.94 -5.837,-6.104 -12.648,-8.882 -20.81,-8.493 -7.807,0.405 -14.203,3.456 -19.555,9.331 -5.388,5.914 -7.941,12.765 -7.805,20.943 v 0.001 c 0.133,8.142 2.936,14.839 8.569,20.471 5.661,5.661 12.329,8.413 20.386,8.413 7.691,0 14.025,-2.723 19.366,-8.324 C -2.912,14.542 -0.132,7.866 0,0 M -26.899,50.728 C -41.335,51.246 -53.791,46.276 -63.918,35.979 -74.119,25.775 -79.292,13.333 -79.292,-1.005 c 0,-13.716 4.827,-25.759 14.345,-35.796 9.438,-9.952 21.166,-15.262 34.884,-15.782 0.628,-0.021 1.25,-0.031 1.87,-0.031 10.627,0 20.169,3.074 28.503,9.167 v -7.118 h 22.005 v 49.619 c 0.493,13.665 -4.186,25.699 -13.88,35.738 -9.541,10.052 -21.427,15.413 -35.334,15.936" style="fill:#000000;fill-opacity:1;fill-rule:nonzero;stroke:none" id="path62"/>
        </g>
        <g id="g64" transform="translate(896.7368,310.0967)">
          <path d="M 0,0 V 18.113 H -70.668 V -3.426 h 40.771 L -72.378,-63.039 V -81.007 H 3.576 v 21.539 h -45.635 z" style="fill:#000000;fill-opacity:1;fill-rule:nonzero;stroke:none" id="path66"/>
        </g>
        <g id="g68" transform="translate(954.625,266.4199)">
          <path d="m 0,0 -24.88,61.79 h -24.168 l 35.965,-91.067 -15.453,-38.992 H -4.569 L 50.059,61.79 H 26.247 Z" style="fill:#000000;fill-opacity:1;fill-rule:nonzero;stroke:none" id="path70"/>
        </g>
        <g id="g72" transform="translate(1088.0361,312.5117)">
          <path d="m 0,0 c -3.825,-2.933 -8.12,-4.358 -13.131,-4.358 h -16.515 v 29.456 h 15.894 c 5.455,0 9.858,-1.328 13.461,-4.064 l 0.109,-0.08 C 3.369,18.402 5.096,14.864 5.096,10.137 5.096,5.913 3.47,2.687 0,0 m -29.646,-25.741 h 15.894 c 7.49,0 13.17,-1.421 17.371,-4.348 4.247,-2.95 6.399,-7.165 6.771,-13.23 0.256,-4.726 -1.074,-8.663 -3.953,-11.703 -4.001,-4.224 -10.951,-6.55 -19.568,-6.55 h -16.515 z m 47.511,12.284 c 6.445,6.359 9.702,14.474 9.702,24.216 0,10.596 -4.37,19.502 -13.009,26.488 -7.917,6.334 -17.338,9.546 -28,9.546 H -52.585 V -83.422 h 43.341 c 11.315,0 21.318,3.734 29.737,11.1 8.772,7.696 13.033,17.241 12.669,28.373 -0.433,13.138 -5.685,23.54 -15.297,30.492" style="fill:#000000;fill-opacity:1;fill-rule:nonzero;stroke:none" id="path74"/>
        </g>
        <g id="g76" transform="translate(1195.4326,271.0322)">
          <path d="m 0,0 c 0,-5.964 -2.192,-11.057 -6.647,-15.513 -4.527,-4.396 -9.392,-6.445 -15.31,-6.445 -5.942,0 -11.001,2.108 -15.411,6.392 -4.405,4.405 -6.547,9.497 -6.547,15.566 V 57.178 H -66.387 V 1.399 c 0,-12.85 4.206,-23.751 12.539,-32.436 8.502,-8.681 19.232,-13.081 31.891,-13.081 12.733,0 23.423,4.414 31.735,13.081 8.422,8.598 12.694,19.511 12.694,32.436 V 57.178 H 0 Z" style="fill:#000000;fill-opacity:1;fill-rule:nonzero;stroke:none" id="path78"/>
        </g>
        <g id="g80" transform="translate(1305.0039,278.584)">
          <path d="m 0,0 c -0.062,-3.938 -0.796,-7.577 -2.205,-10.964 -1.409,-3.378 -3.509,-6.511 -6.301,-9.441 -5.407,-5.68 -11.567,-8.331 -19.364,-8.331 -7.954,0 -14.569,2.757 -20.232,8.418 -5.731,5.74 -8.592,12.434 -8.723,20.467 -0.132,7.963 2.476,14.762 7.963,20.791 5.46,5.995 11.856,9.092 19.531,9.486 0.498,0.026 0.997,0.035 1.478,0.035 7.552,0 13.887,-2.835 19.357,-8.681 C -2.512,15.532 0.263,8.436 0,0 M 7.062,37.549 C -3.272,47.865 -15.698,52.914 -29.935,52.573 -43.734,52.048 -55.513,46.745 -64.946,36.796 -74.361,26.864 -79.139,14.823 -79.139,0.998 c 0,-14.272 5.162,-26.75 15.374,-37.137 1.847,-1.846 3.763,-3.526 5.749,-5.032 h -0.044 c 1.454,-1.12 4.682,-3.403 9.556,-5.661 0.219,-0.106 0.446,-0.201 0.674,-0.307 6.449,-2.773 13.45,-4.034 20.923,-3.754 10.097,0.36 19.119,3.343 26.942,8.882 -0.796,-5.206 -3.334,-9.739 -7.735,-13.816 -5.312,-5.059 -11.516,-7.587 -18.971,-7.728 -6.257,0.009 -11.778,1.856 -16.88,5.645 l -0.07,0.053 c -2.809,2.012 -5.067,4.217 -6.755,6.588 h -6.169 -11.831 -5.601 c 3.038,-8.654 8.182,-15.881 15.323,-21.491 8.322,-6.633 18.55,-10.256 30.425,-10.78 0.744,-0.026 1.488,-0.044 2.223,-0.044 12.014,0 22.987,3.902 32.656,11.604 10.501,8.356 15.822,19.101 15.822,31.938 V 0.779 c 0.174,14.325 -5.015,26.698 -15.41,36.77" style="fill:#000000;fill-opacity:1;fill-rule:nonzero;stroke:none" id="path82"/>
        </g>
        <g id="g84" transform="translate(788,279)">
          <path d="m 0,0 c 0,-13.807 -11.193,-25 -25,-25 -13.807,0 -25,11.193 -25,25 0,13.807 11.193,25 25,25 C -11.193,25 0,13.807 0,0" style="fill:#fde94c;fill-opacity:1;fill-rule:nonzero;stroke:none" id="path86"/>
        </g>
        <g id="g88" transform="translate(1302,279)">
          <path d="m 0,0 c 0,-14.359 -11.193,-26 -25,-26 -13.807,0 -25,11.641 -25,26 0,14.359 11.193,26 25,26 C -11.193,26 0,14.359 0,0" style="fill:#fde94c;fill-opacity:1;fill-rule:nonzero;stroke:none" id="path90"/>
        </g>
      </g>
    </g>
  </g>
</svg>